<svg id="Layer_1" data-name="Layer 1" xmlns="http://www.w3.org/2000/svg" viewBox="0 0 284.36 107.37"><defs><style>.cls-1{fill:#76777a;}.cls-2{fill:#c41230;}</style></defs><path class="cls-1" d="M48.25,24.91l-1.91-.24L46.8,21c.05-.44.11-.85.18-1.22a4.2,4.2,0,0,1-.49.39l-.88.56-.82-1.33,2.63-1.65,1.7.21Z" transform="translate(-1.65 -16.01)"/><path class="cls-1" d="M56.14,23.47a4.64,4.64,0,0,1-1.42,2.41,2.18,2.18,0,0,1-2.08.25,2.22,2.22,0,0,1-1.54-1.44,4.64,4.64,0,0,1,.22-2.76,4.76,4.76,0,0,1,1.43-2.43,2.2,2.2,0,0,1,2.08-.25,2.17,2.17,0,0,1,1.53,1.45A4.68,4.68,0,0,1,56.14,23.47Zm-3-1a5.81,5.81,0,0,0-.35,1.61c0,.31.11.51.34.58s.43,0,.61-.29a6,6,0,0,0,.64-1.5,6.36,6.36,0,0,0,.35-1.6q0-.5-.33-.6a.53.53,0,0,0-.61.28A6,6,0,0,0,53.11,22.5Z" transform="translate(-1.65 -16.01)"/><path class="cls-1" d="M62.25,26.58a4.75,4.75,0,0,1-1.84,2.11,2.19,2.19,0,0,1-2.09-.15,2.15,2.15,0,0,1-1.24-1.69,4.7,4.7,0,0,1,.71-2.68,4.85,4.85,0,0,1,1.85-2.12,2.23,2.23,0,0,1,2.1.14A2.18,2.18,0,0,1,63,23.89,4.79,4.79,0,0,1,62.25,26.58Zm-2.8-1.51a6,6,0,0,0-.64,1.51.5.5,0,0,0,.88.46,5.44,5.44,0,0,0,.9-1.35,6.25,6.25,0,0,0,.65-1.51c.06-.33,0-.54-.22-.65a.53.53,0,0,0-.65.16A6.2,6.2,0,0,0,59.45,25.07Z" transform="translate(-1.65 -16.01)"/><path class="cls-1" d="M67.71,30.78a4.76,4.76,0,0,1-2.2,1.73,2.22,2.22,0,0,1-2-.53,2.17,2.17,0,0,1-.9-1.9,4.61,4.61,0,0,1,1.19-2.49A4.74,4.74,0,0,1,66,25.85a2.18,2.18,0,0,1,2,.52,2.15,2.15,0,0,1,.9,1.9A4.71,4.71,0,0,1,67.71,30.78Zm-2.47-2a6,6,0,0,0-.92,1.36.5.5,0,0,0,.79.62,6.31,6.31,0,0,0,1.14-1.17,6.48,6.48,0,0,0,.91-1.36c.12-.31.08-.54-.1-.68a.53.53,0,0,0-.67,0A6.07,6.07,0,0,0,65.24,28.78Z" transform="translate(-1.65 -16.01)"/><path class="cls-1" d="M69,37.45,67.79,36l2.82-2.42q.51-.43,1-.78a4.84,4.84,0,0,1-.63,0l-1-.18L70.2,31l3.06.55,1.11,1.3Z" transform="translate(-1.65 -16.01)"/><path class="cls-1" d="M75.85,41.7a4.72,4.72,0,0,1-2.67.82,2.18,2.18,0,0,1-1.71-1.22,2.16,2.16,0,0,1-.17-2.09,4.7,4.7,0,0,1,2-1.9A4.83,4.83,0,0,1,76,36.47a2.2,2.2,0,0,1,1.71,1.22,2.16,2.16,0,0,1,.16,2.09A4.65,4.65,0,0,1,75.85,41.7Zm-1.59-2.76a6.32,6.32,0,0,0-1.35,1,.54.54,0,0,0-.13.66c.12.2.33.27.65.2a6.17,6.17,0,0,0,1.47-.69,6.06,6.06,0,0,0,1.34-.94c.22-.25.28-.47.16-.67a.55.55,0,0,0-.64-.21A6.31,6.31,0,0,0,74.26,38.94Z" transform="translate(-1.65 -16.01)"/><path class="cls-1" d="M78.29,48.11a4.66,4.66,0,0,1-2.78.32,2.49,2.49,0,0,1-1.23-3.6,4.71,4.71,0,0,1,2.33-1.5A4.77,4.77,0,0,1,79.4,43a2.47,2.47,0,0,1,1.23,3.6A4.69,4.69,0,0,1,78.29,48.11Zm-1.06-3a5.86,5.86,0,0,0-1.49.69.54.54,0,0,0-.26.62c.08.22.28.33.61.32a6.23,6.23,0,0,0,1.58-.41,6.12,6.12,0,0,0,1.49-.68q.39-.3.27-.63c-.08-.22-.27-.33-.59-.32A6.13,6.13,0,0,0,77.23,45.11Z" transform="translate(-1.65 -16.01)"/><path class="cls-1" d="M75.91,54.51l-.29-1.9L79.29,52c.44-.07.85-.12,1.23-.16a5.8,5.8,0,0,1-.52-.37l-.77-.68,1-1.16,2.3,2.08.27,1.69Z" transform="translate(-1.65 -16.01)"/><path class="cls-1" d="M76,60.71l0-1.92,3.72.1c.45,0,.86,0,1.24.07a3.91,3.91,0,0,1-.44-.46l-.64-.81,1.24-.95,1.89,2.46,0,1.71Z" transform="translate(-1.65 -16.01)"/><path class="cls-1" d="M75,66.84l.4-1.88,3.63.78c.44.1.85.19,1.21.29a4.06,4.06,0,0,1-.35-.53l-.47-.91,1.39-.71,1.41,2.77-.37,1.67Z" transform="translate(-1.65 -16.01)"/><path class="cls-1" d="M72.8,72.66l.75-1.78L77,72.32l1.13.51a3.17,3.17,0,0,1-.24-.58l-.3-1,1.5-.44.87,3-.66,1.57Z" transform="translate(-1.65 -16.01)"/><path class="cls-1" d="M72.05,80.63a4.67,4.67,0,0,1-1.93-2,2.17,2.17,0,0,1,.32-2.07,2.21,2.21,0,0,1,1.8-1.09,4.73,4.73,0,0,1,2.6,1,4.82,4.82,0,0,1,2,2,2.2,2.2,0,0,1-.32,2.08,2.15,2.15,0,0,1-1.8,1.08A4.73,4.73,0,0,1,72.05,80.63ZM73.8,78a5.72,5.72,0,0,0-1.45-.78c-.3-.08-.51,0-.64.17a.53.53,0,0,0,.11.67,8.69,8.69,0,0,0,2.72,1.79c.31.09.53,0,.66-.16s.1-.41-.1-.66A6.13,6.13,0,0,0,73.8,78Z" transform="translate(-1.65 -16.01)"/><path class="cls-1" d="M65.51,82.62l1.33-1.39,2.68,2.58c.32.31.61.61.87.88a4.23,4.23,0,0,1,0-.63l.08-1,1.56.13-.26,3.1-1.19,1.23Z" transform="translate(-1.65 -16.01)"/><path class="cls-1" d="M62,89.8a4.78,4.78,0,0,1-1.08-2.59A2.49,2.49,0,0,1,64,85a4.66,4.66,0,0,1,2.08,1.82,4.73,4.73,0,0,1,1.09,2.59,2.48,2.48,0,0,1-3.11,2.19A4.79,4.79,0,0,1,62,89.8Zm2.59-1.86a6,6,0,0,0-1.08-1.24.51.51,0,0,0-.66-.07c-.2.13-.24.36-.14.66a6,6,0,0,0,.82,1.41,6.63,6.63,0,0,0,1.07,1.24c.27.2.49.23.68.09a.54.54,0,0,0,.15-.66A6.58,6.58,0,0,0,64.54,87.94Z" transform="translate(-1.65 -16.01)"/><path class="cls-1" d="M55.79,92.85a4.69,4.69,0,0,1-.59-2.73,2.49,2.49,0,0,1,3.47-1.58,4.66,4.66,0,0,1,1.71,2.17,4.78,4.78,0,0,1,.6,2.75A2.48,2.48,0,0,1,57.51,95,4.75,4.75,0,0,1,55.79,92.85Zm2.88-1.34a6.07,6.07,0,0,0-.82-1.42c-.22-.23-.43-.3-.64-.2s-.31.31-.26.63a6,6,0,0,0,.55,1.54,6.26,6.26,0,0,0,.82,1.41c.23.24.44.32.65.22s.3-.31.27-.62A6.1,6.1,0,0,0,58.67,91.51Z" transform="translate(-1.65 -16.01)"/><path class="cls-1" d="M49.18,91.1l1.87-.48.92,3.6c.11.44.2.84.27,1.21a4.79,4.79,0,0,1,.32-.55l.61-.83,1.25.93-1.85,2.5-1.65.42Z" transform="translate(-1.65 -16.01)"/><path class="cls-1" d="M42.38,95.33a4.74,4.74,0,0,1,.45-2.77,2.2,2.2,0,0,1,1.84-1,2.16,2.16,0,0,1,2,.78A4.69,4.69,0,0,1,47.44,95,4.78,4.78,0,0,1,47,97.77a2.48,2.48,0,0,1-3.8.22A4.79,4.79,0,0,1,42.38,95.33Zm3.18-.22a5.79,5.79,0,0,0-.26-1.62c-.12-.29-.29-.43-.53-.41s-.39.18-.47.49a6.14,6.14,0,0,0,0,1.63,6,6,0,0,0,.25,1.62c.12.31.3.45.53.44s.39-.18.47-.49A6.18,6.18,0,0,0,45.56,95.11Z" transform="translate(-1.65 -16.01)"/><path class="cls-1" d="M36.84,91.32l1.91.23-.43,3.69c0,.44-.11.85-.17,1.22a3.49,3.49,0,0,1,.49-.39l.87-.57.83,1.32-2.62,1.67-1.7-.2Z" transform="translate(-1.65 -16.01)"/><path class="cls-1" d="M29,92.82a4.71,4.71,0,0,1,1.4-2.42,2.19,2.19,0,0,1,2.09-.26A2.17,2.17,0,0,1,34,91.56a6.19,6.19,0,0,1-1.6,5.2,2.22,2.22,0,0,1-2.09.27,2.18,2.18,0,0,1-1.54-1.44A4.73,4.73,0,0,1,29,92.82Zm3,.94a6,6,0,0,0,.34-1.6c0-.32-.12-.51-.34-.58a.54.54,0,0,0-.62.29,6.45,6.45,0,0,0-.62,1.51,5.81,5.81,0,0,0-.34,1.6q0,.49.33.6c.23.07.43,0,.61-.29A5.66,5.66,0,0,0,32,93.76Z" transform="translate(-1.65 -16.01)"/><path class="cls-1" d="M25.24,87.08l1.7.9L25.2,91.27c-.21.39-.41.75-.61,1.08a4,4,0,0,1,.61-.2l1-.2.3,1.53-3.05.6L22,93.28Z" transform="translate(-1.65 -16.01)"/><path class="cls-1" d="M17.36,85.64a4.66,4.66,0,0,1,2.18-1.75,2.19,2.19,0,0,1,2,.5,2.17,2.17,0,0,1,.92,1.89,4.68,4.68,0,0,1-1.17,2.51,4.84,4.84,0,0,1-2.19,1.76,2.19,2.19,0,0,1-2-.5,2.16,2.16,0,0,1-.92-1.89A4.65,4.65,0,0,1,17.36,85.64Zm2.49,2a5.58,5.58,0,0,0,.9-1.37.53.53,0,0,0-.11-.66c-.19-.15-.41-.13-.68,0a5.9,5.9,0,0,0-1.12,1.18,5.83,5.83,0,0,0-.9,1.37.5.5,0,0,0,.77.64A6.24,6.24,0,0,0,19.85,87.61Z" transform="translate(-1.65 -16.01)"/><path class="cls-1" d="M16,79l1.26,1.45-2.8,2.44c-.34.3-.66.56-.95.8a3.56,3.56,0,0,1,.63,0l1,.17-.27,1.54-3.06-.53-1.12-1.29Z" transform="translate(-1.65 -16.01)"/><path class="cls-1" d="M12.57,73.74l1,1.65-3.2,1.89q-.59.34-1.08.6a3.25,3.25,0,0,1,.61.16l1,.35-.55,1.46L7.39,78.77,6.52,77.3Z" transform="translate(-1.65 -16.01)"/><path class="cls-1" d="M6.62,68.38A4.71,4.71,0,0,1,9.4,68a2.22,2.22,0,0,1,1.46,1.5,2.16,2.16,0,0,1-.2,2.09,4.67,4.67,0,0,1-2.32,1.52,4.75,4.75,0,0,1-2.79.35A2.17,2.17,0,0,1,4.08,72a2.14,2.14,0,0,1,.21-2.09A4.61,4.61,0,0,1,6.62,68.38Zm1.08,3a6.16,6.16,0,0,0,1.49-.7.52.52,0,0,0,.25-.62c-.08-.22-.28-.33-.61-.32a6.71,6.71,0,0,0-1.57.42,6,6,0,0,0-1.49.7q-.39.3-.27.63c.08.21.28.32.6.31A6.13,6.13,0,0,0,7.7,71.37Z" transform="translate(-1.65 -16.01)"/><path class="cls-1" d="M8.94,61.94l.31,1.9-3.67.59c-.44.08-.85.13-1.22.17a4.6,4.6,0,0,1,.51.37l.78.68-1,1.16L2.29,64.75,2,63.07Z" transform="translate(-1.65 -16.01)"/><path class="cls-1" d="M5.32,54.78A4.74,4.74,0,0,1,8,55.46a2.22,2.22,0,0,1,.83,1.93,2.17,2.17,0,0,1-.95,1.88,4.71,4.71,0,0,1-2.7.58,4.78,4.78,0,0,1-2.73-.68,2.47,2.47,0,0,1,.11-3.8A4.7,4.7,0,0,1,5.32,54.78ZM5.26,58a6,6,0,0,0,1.64-.11c.3-.1.45-.26.46-.49s-.15-.41-.45-.51a5.68,5.68,0,0,0-1.62-.18,6.12,6.12,0,0,0-1.64.11c-.32.1-.47.26-.48.49s.14.4.44.51A5.72,5.72,0,0,0,5.26,58Z" transform="translate(-1.65 -16.01)"/><path class="cls-1" d="M6.55,48A4.67,4.67,0,0,1,9.1,49.21a2.49,2.49,0,0,1-.81,3.72A4.73,4.73,0,0,1,5.52,53,4.89,4.89,0,0,1,3,51.84a2.47,2.47,0,0,1,.81-3.72A4.77,4.77,0,0,1,6.55,48Zm-.64,3.12a6.34,6.34,0,0,0,1.63.19c.31,0,.49-.17.54-.4a.56.56,0,0,0-.35-.59,6.13,6.13,0,0,0-1.56-.47,6.26,6.26,0,0,0-1.63-.19c-.33,0-.51.17-.56.4s.06.42.34.58A5.84,5.84,0,0,0,5.91,51.16Z" transform="translate(-1.65 -16.01)"/><path class="cls-1" d="M9,41.63a4.67,4.67,0,0,1,2.28,1.61,2.18,2.18,0,0,1,.08,2.1,2.18,2.18,0,0,1-1.56,1.41,4.71,4.71,0,0,1-2.73-.43,4.81,4.81,0,0,1-2.3-1.63A2.16,2.16,0,0,1,4.7,42.6a2.12,2.12,0,0,1,1.56-1.41A4.72,4.72,0,0,1,9,41.63ZM7.8,44.57a6.06,6.06,0,0,0,1.57.49.5.5,0,0,0,.37-.93,6.2,6.2,0,0,0-1.45-.76,6.42,6.42,0,0,0-1.57-.48c-.32,0-.53.07-.62.28s0,.43.23.64A6.19,6.19,0,0,0,7.8,44.57Z" transform="translate(-1.65 -16.01)"/><path class="cls-1" d="M15,38.45l-1,1.62-3.11-2c-.38-.25-.73-.48-1-.7A4.1,4.1,0,0,1,10,38l.12,1-1.55.17-.34-3.09.93-1.43Z" transform="translate(-1.65 -16.01)"/><path class="cls-1" d="M17.19,30.7A4.77,4.77,0,0,1,18.74,33a2.21,2.21,0,0,1-.68,2,2.17,2.17,0,0,1-2,.75,4.64,4.64,0,0,1-2.39-1.39A4.69,4.69,0,0,1,12.14,32a2.19,2.19,0,0,1,.68-2,2.16,2.16,0,0,1,2-.74A4.65,4.65,0,0,1,17.19,30.7ZM15,33a6,6,0,0,0,1.29,1A.53.53,0,0,0,17,34a.55.55,0,0,0,0-.68,6.33,6.33,0,0,0-1.08-1.23,5.87,5.87,0,0,0-1.29-1c-.29-.14-.52-.13-.68,0a.53.53,0,0,0,0,.67A6.14,6.14,0,0,0,15,33Z" transform="translate(-1.65 -16.01)"/><path class="cls-1" d="M22.64,26.54a4.68,4.68,0,0,1,1.1,2.57,2.21,2.21,0,0,1-1,1.83,2.16,2.16,0,0,1-2.06.38,4.7,4.7,0,0,1-2.1-1.8,4.68,4.68,0,0,1-1.11-2.59,2.2,2.2,0,0,1,1-1.83,2.17,2.17,0,0,1,2.07-.38A4.76,4.76,0,0,1,22.64,26.54Zm-2.58,1.87a6.24,6.24,0,0,0,1.09,1.24.52.52,0,0,0,.66.06c.2-.14.24-.36.14-.66a5.73,5.73,0,0,0-.84-1.4A6.23,6.23,0,0,0,20,26.41a.5.5,0,0,0-.82.58A6.33,6.33,0,0,0,20.06,28.41Z" transform="translate(-1.65 -16.01)"/><path class="cls-1" d="M29.44,27l-1.73.83-1.6-3.36c-.19-.4-.36-.78-.51-1.13a3.82,3.82,0,0,1-.2.6l-.44.94-1.41-.67,1.33-2.81,1.55-.74Z" transform="translate(-1.65 -16.01)"/><path class="cls-1" d="M35.33,21.53a4.76,4.76,0,0,1,.1,2.8,2.23,2.23,0,0,1-1.63,1.33,2.18,2.18,0,0,1-2.06-.39,4.71,4.71,0,0,1-1.31-2.44,4.82,4.82,0,0,1-.1-2.82A2.21,2.21,0,0,1,32,18.68a2.18,2.18,0,0,1,2.07.4A4.67,4.67,0,0,1,35.33,21.53Zm-3.08.82a6.31,6.31,0,0,0,.57,1.54c.17.26.37.36.59.3s.36-.25.37-.57A5.85,5.85,0,0,0,33.51,22a6,6,0,0,0-.57-1.54c-.17-.27-.37-.38-.6-.32a.53.53,0,0,0-.36.56A6.18,6.18,0,0,0,32.25,22.35Z" transform="translate(-1.65 -16.01)"/><path class="cls-1" d="M42.14,20.86a4.61,4.61,0,0,1-.42,2.77,2.17,2.17,0,0,1-1.84,1,2.13,2.13,0,0,1-2-.76,4.67,4.67,0,0,1-.84-2.63,4.82,4.82,0,0,1,.42-2.79,2.17,2.17,0,0,1,1.84-1,2.15,2.15,0,0,1,1.95.77A4.69,4.69,0,0,1,42.14,20.86ZM39,21.1a6.08,6.08,0,0,0,.27,1.62c.12.29.3.42.53.41s.39-.19.47-.5a6.27,6.27,0,0,0,0-1.63A6.42,6.42,0,0,0,40,19.38c-.12-.3-.3-.44-.53-.43s-.39.18-.46.49A5.91,5.91,0,0,0,39,21.1Z" transform="translate(-1.65 -16.01)"/><path class="cls-1" d="M41.51,36l-1.69.18-.34-3.27c0-.39-.08-.76-.09-1.09a5.58,5.58,0,0,1-.35.44l-.64.65-1-1,1.94-2,1.5-.16Z" transform="translate(-1.65 -16.01)"/><path class="cls-1" d="M48,33.46a4.2,4.2,0,0,1-.87,2.32,2,2,0,0,1-1.78.54,1.92,1.92,0,0,1-1.55-1,4.16,4.16,0,0,1-.24-2.44,4.2,4.2,0,0,1,.87-2.33A2,2,0,0,1,46.24,30a1.92,1.92,0,0,1,1.55,1A4.21,4.21,0,0,1,48,33.46Zm-2.79-.37a5.48,5.48,0,0,0-.06,1.45c0,.27.18.42.38.45s.37-.09.5-.34a5.48,5.48,0,0,0,.32-1.41,5.46,5.46,0,0,0,.06-1.45c0-.29-.18-.44-.38-.47s-.37.09-.49.34A5.26,5.26,0,0,0,45.24,33.09Z" transform="translate(-1.65 -16.01)"/><path class="cls-1" d="M53.76,35.52a4.16,4.16,0,0,1-1.41,2,1.93,1.93,0,0,1-1.85.09,1.89,1.89,0,0,1-1.26-1.36,4.06,4.06,0,0,1,.35-2.42,4.09,4.09,0,0,1,1.41-2,2.18,2.18,0,0,1,3.11,1.26A4.11,4.11,0,0,1,53.76,35.52Zm-2.62-1a5,5,0,0,0-.41,1.39.47.47,0,0,0,.26.53c.2.08.39,0,.57-.22a5.77,5.77,0,0,0,.65-1.28,5.65,5.65,0,0,0,.41-1.39c0-.29-.07-.48-.26-.55s-.38,0-.56.21A5.23,5.23,0,0,0,51.14,34.49Z" transform="translate(-1.65 -16.01)"/><path class="cls-1" d="M58.83,38.9A4.14,4.14,0,0,1,57,40.55a2,2,0,0,1-1.82-.36,1.93,1.93,0,0,1-.9-1.63,4.11,4.11,0,0,1,.92-2.26A4.25,4.25,0,0,1,57,34.64a1.94,1.94,0,0,1,1.83.36,1.88,1.88,0,0,1,.89,1.62A4.08,4.08,0,0,1,58.83,38.9Zm-2.29-1.63a5.18,5.18,0,0,0-.73,1.25c-.08.27,0,.46.13.58a.48.48,0,0,0,.6-.07,5.44,5.44,0,0,0,.93-1.1,5.45,5.45,0,0,0,.74-1.25c.09-.27,0-.47-.12-.59a.47.47,0,0,0-.59.07A5,5,0,0,0,56.54,37.27Z" transform="translate(-1.65 -16.01)"/><path class="cls-1" d="M60.08,44.81,59,43.52l2.49-2.15c.31-.26.59-.49.85-.69a4,4,0,0,1-.56,0l-.9-.15.25-1.36,2.7.48,1,1.15Z" transform="translate(-1.65 -16.01)"/><path class="cls-1" d="M65.87,48.71a4.3,4.3,0,0,1-2.41.6A2,2,0,0,1,62,48.15a1.93,1.93,0,0,1,0-1.86,4,4,0,0,1,1.86-1.58,4.21,4.21,0,0,1,2.42-.61,2.2,2.2,0,0,1,1.5,3A4.28,4.28,0,0,1,65.87,48.71ZM64.59,46.2a4.79,4.79,0,0,0-1.23.77q-.3.3-.15.57c.09.19.28.26.56.21a5.12,5.12,0,0,0,1.34-.53,5.25,5.25,0,0,0,1.23-.78c.2-.2.26-.39.17-.58a.49.49,0,0,0-.56-.21A5,5,0,0,0,64.59,46.2Z" transform="translate(-1.65 -16.01)"/><path class="cls-1" d="M67.43,54.6a4.11,4.11,0,0,1-2.48,0,1.92,1.92,0,0,1-1.12-1.47,1.89,1.89,0,0,1,.4-1.81,4.09,4.09,0,0,1,2.19-1.09,4.23,4.23,0,0,1,2.49,0,2.2,2.2,0,0,1,.73,3.29A4.2,4.2,0,0,1,67.43,54.6Zm-.63-2.74a5.27,5.27,0,0,0-1.39.45.47.47,0,0,0-.28.52c.05.2.21.32.5.34a5.26,5.26,0,0,0,1.42-.2,5.19,5.19,0,0,0,1.38-.45c.25-.15.35-.32.31-.52s-.21-.32-.49-.34A5.12,5.12,0,0,0,66.8,51.86Z" transform="translate(-1.65 -16.01)"/><path class="cls-1" d="M64.45,59.87l0-1.71,3.28.06c.4,0,.77,0,1.1,0a3.76,3.76,0,0,1-.4-.4l-.57-.71L69,56.3l1.7,2.16,0,1.51Z" transform="translate(-1.65 -16.01)"/><path class="cls-1" d="M63.4,65.08l.43-1.65,3.18.83,1,.3a3.37,3.37,0,0,1-.29-.48l-.38-.83,1.25-.57,1.14,2.5-.38,1.46Z" transform="translate(-1.65 -16.01)"/><path class="cls-1" d="M61.1,69.91l.81-1.49L64.8,70c.35.19.67.37,1,.55a3.16,3.16,0,0,1-.16-.54l-.18-.89,1.36-.26.5,2.71-.72,1.32Z" transform="translate(-1.65 -16.01)"/><path class="cls-1" d="M57.74,74l1.15-1.26L61.32,75c.29.27.56.52.79.76a4.73,4.73,0,0,1,0-.56l0-.91,1.38.08-.15,2.74-1,1.12Z" transform="translate(-1.65 -16.01)"/><path class="cls-1" d="M54.56,80.24a4.12,4.12,0,0,1-.89-2.31,2.2,2.2,0,0,1,2.81-1.85,4.22,4.22,0,0,1,1.8,1.66,4.28,4.28,0,0,1,.89,2.33,1.91,1.91,0,0,1-1,1.58,1.93,1.93,0,0,1-1.84.27A4.22,4.22,0,0,1,54.56,80.24Zm2.33-1.57A5.24,5.24,0,0,0,56,77.55a.44.44,0,0,0-.73.5,5.34,5.34,0,0,0,.69,1.26,5.25,5.25,0,0,0,.92,1.13.48.48,0,0,0,.59.1c.18-.12.22-.31.15-.58A5.48,5.48,0,0,0,56.89,78.67Z" transform="translate(-1.65 -16.01)"/><path class="cls-1" d="M48.57,79.33l1.6-.58,1.12,3.09c.14.38.25.73.35,1a3.57,3.57,0,0,1,.23-.51l.47-.78,1.18.71-1.41,2.36-1.42.51Z" transform="translate(-1.65 -16.01)"/><path class="cls-1" d="M42.87,83.35a4.15,4.15,0,0,1,.29-2.46,2,2,0,0,1,1.6-.94,1.93,1.93,0,0,1,1.76.61,4.12,4.12,0,0,1,.81,2.31A4.2,4.2,0,0,1,47,85.34a2.19,2.19,0,0,1-3.35.33A4.09,4.09,0,0,1,42.87,83.35Zm2.8-.3a5.37,5.37,0,0,0-.28-1.43c-.12-.25-.28-.37-.49-.34s-.34.17-.39.45a5.34,5.34,0,0,0,0,1.44,5.57,5.57,0,0,0,.28,1.42c.12.27.28.39.49.37s.33-.17.39-.45A5.47,5.47,0,0,0,45.67,83.05Z" transform="translate(-1.65 -16.01)"/><path class="cls-1" d="M36.79,82.72a4.23,4.23,0,0,1,.87-2.32,2,2,0,0,1,1.78-.53,1.93,1.93,0,0,1,1.56,1,4.14,4.14,0,0,1,.24,2.43,4.23,4.23,0,0,1-.88,2.34A2.2,2.2,0,0,1,37,85.17,4.2,4.2,0,0,1,36.79,82.72Zm2.79.38a5.19,5.19,0,0,0,.07-1.45q-.07-.42-.39-.45c-.21,0-.37.08-.49.34a5.48,5.48,0,0,0-.32,1.4,5.24,5.24,0,0,0-.07,1.46c0,.28.18.44.39.46s.36-.08.49-.33A5.36,5.36,0,0,0,39.58,83.1Z" transform="translate(-1.65 -16.01)"/><path class="cls-1" d="M32.94,78.08l1.58.62-1.21,3.06c-.14.37-.29.71-.42,1a3.08,3.08,0,0,1,.51-.23l.87-.28.41,1.32-2.62.83-1.4-.56Z" transform="translate(-1.65 -16.01)"/><path class="cls-1" d="M26,77.28a4.22,4.22,0,0,1,1.85-1.64,1.92,1.92,0,0,1,1.82.36,1.88,1.88,0,0,1,.9,1.62,4.14,4.14,0,0,1-.92,2.27,4.15,4.15,0,0,1-1.86,1.65,2.19,2.19,0,0,1-2.72-2A4.22,4.22,0,0,1,26,77.28Zm2.29,1.64A5.14,5.14,0,0,0,29,77.66a.48.48,0,0,0-.13-.58c-.17-.12-.37-.09-.6.08a5.26,5.26,0,0,0-.94,1.09,5.52,5.52,0,0,0-.73,1.25q-.14.42.12.6c.16.12.36.1.59-.07A5.88,5.88,0,0,0,28.28,78.92Z" transform="translate(-1.65 -16.01)"/><path class="cls-1" d="M24.74,71.38l1.11,1.29-2.49,2.14c-.3.27-.58.5-.85.7a3.87,3.87,0,0,1,.56,0l.9.15-.24,1.36L21,76.58l-1-1.15Z" transform="translate(-1.65 -16.01)"/><path class="cls-1" d="M19,67.48a4.13,4.13,0,0,1,2.4-.6,2.21,2.21,0,0,1,1.5,3A4.22,4.22,0,0,1,21,71.48a4.26,4.26,0,0,1-2.41.61,2,2,0,0,1-1.46-1.16,1.93,1.93,0,0,1,0-1.86A4.15,4.15,0,0,1,19,67.48ZM20.24,70a6,6,0,0,0,1.23-.77.49.49,0,0,0,.15-.58c-.1-.18-.28-.25-.57-.21a5.64,5.64,0,0,0-1.33.54,5.19,5.19,0,0,0-1.23.77c-.21.2-.27.4-.17.58s.28.26.55.22A6,6,0,0,0,20.24,70Z" transform="translate(-1.65 -16.01)"/><path class="cls-1" d="M20.59,61.66,21,63.32l-3.2.74-1.07.22a3.17,3.17,0,0,1,.47.29l.73.56-.85,1.09-2.17-1.69-.34-1.47Z" transform="translate(-1.65 -16.01)"/><path class="cls-1" d="M17.29,55.52a4.12,4.12,0,0,1,2.41.59,2,2,0,0,1,.74,1.7,1.91,1.91,0,0,1-.83,1.66,4.1,4.1,0,0,1-2.39.53,4.31,4.31,0,0,1-2.42-.59A2.2,2.2,0,0,1,14.89,56,4.12,4.12,0,0,1,17.29,55.52Zm0,2.81a5.11,5.11,0,0,0,1.45-.11c.26-.08.4-.23.4-.43s-.13-.36-.4-.45a5.76,5.76,0,0,0-1.43-.16,5.61,5.61,0,0,0-1.45.11c-.28.09-.42.23-.42.44s.13.35.39.45A5.46,5.46,0,0,0,17.25,58.33Z" transform="translate(-1.65 -16.01)"/><path class="cls-1" d="M21.43,51.11,21,52.76l-3.18-.83q-.59-.15-1.05-.3a3.89,3.89,0,0,1,.28.47l.39.83-1.26.58L15,51l.38-1.47Z" transform="translate(-1.65 -16.01)"/><path class="cls-1" d="M23.71,46.3l-.82,1.5L20,46.23c-.35-.19-.67-.37-1-.55a4.43,4.43,0,0,1,.16.54l.18.89L18,47.37l-.51-2.7.72-1.33Z" transform="translate(-1.65 -16.01)"/><path class="cls-1" d="M25.33,39.49a4.18,4.18,0,0,1,1.41,2A2.2,2.2,0,0,1,24.45,44a4.06,4.06,0,0,1-2.14-1.18,4.31,4.31,0,0,1-1.43-2.05A2,2,0,0,1,21.45,39a1.91,1.91,0,0,1,1.72-.69A4.17,4.17,0,0,1,25.33,39.49Zm-1.9,2.08a5.12,5.12,0,0,0,1.16.88.48.48,0,0,0,.59-.06q.21-.22,0-.6a5.48,5.48,0,0,0-1-1.06,5.32,5.32,0,0,0-1.15-.88c-.27-.12-.47-.11-.61,0a.46.46,0,0,0,0,.59A5.22,5.22,0,0,0,23.43,41.57Z" transform="translate(-1.65 -16.01)"/><path class="cls-1" d="M31.34,39l-1.42.95-1.83-2.73c-.22-.33-.42-.64-.59-.92a3.23,3.23,0,0,1-.1.55l-.26.87-1.32-.4.8-2.63,1.26-.84Z" transform="translate(-1.65 -16.01)"/><path class="cls-1" d="M35.92,33.68a4.16,4.16,0,0,1,.31,2.46,1.94,1.94,0,0,1-1.33,1.29,1.89,1.89,0,0,1-1.85-.18,4.14,4.14,0,0,1-1.34-2,4.2,4.2,0,0,1-.31-2.47,1.92,1.92,0,0,1,1.32-1.3,1.88,1.88,0,0,1,1.85.18A4.1,4.1,0,0,1,35.92,33.68Zm-2.64,1A5.11,5.11,0,0,0,33.9,36a.44.44,0,0,0,.82-.32,5.38,5.38,0,0,0-.36-1.39,5.9,5.9,0,0,0-.62-1.32c-.18-.22-.36-.3-.56-.23a.47.47,0,0,0-.28.52A5.56,5.56,0,0,0,33.28,34.64Z" transform="translate(-1.65 -16.01)"/><path class="cls-1" d="M38.72,46.88l-1.35.61L36.2,44.88c-.14-.32-.26-.61-.37-.88a3,3,0,0,1-.17.46l-.35.71-1.07-.54,1.07-2.14,1.2-.53Z" transform="translate(-1.65 -16.01)"/><path class="cls-1" d="M43.54,43.58a3.73,3.73,0,0,1-.36,2.13,1.93,1.93,0,0,1-2.93.13,3.58,3.58,0,0,1-.6-2A3.57,3.57,0,0,1,40,41.67a1.89,1.89,0,0,1,2.92-.14A3.64,3.64,0,0,1,43.54,43.58Zm-2.44.14A4.42,4.42,0,0,0,41.28,45c.09.23.22.33.4.32s.31-.13.37-.37a5,5,0,0,0,0-1.26,4.53,4.53,0,0,0-.18-1.24c-.09-.24-.23-.35-.41-.34s-.3.13-.36.37A4.59,4.59,0,0,0,41.1,43.72Z" transform="translate(-1.65 -16.01)"/><path class="cls-1" d="M48.71,45a3.71,3.71,0,0,1-1.11,1.85A1.71,1.71,0,0,1,46,47a1.69,1.69,0,0,1-1.18-1.12A3.61,3.61,0,0,1,45,43.77a3.68,3.68,0,0,1,1.11-1.86,1.68,1.68,0,0,1,1.6-.18,1.65,1.65,0,0,1,1.17,1.12A3.63,3.63,0,0,1,48.71,45Zm-2.33-.76a4.24,4.24,0,0,0-.28,1.23c0,.25.09.39.26.45s.33,0,.47-.22a4.54,4.54,0,0,0,.5-1.15,5.38,5.38,0,0,0,.28-1.23c0-.25-.09-.41-.26-.46s-.33,0-.47.21A5,5,0,0,0,46.38,44.22Z" transform="translate(-1.65 -16.01)"/><path class="cls-1" d="M53,48.14a3.69,3.69,0,0,1-1.7,1.33,1.71,1.71,0,0,1-1.56-.41,1.67,1.67,0,0,1-.69-1.46A3.64,3.64,0,0,1,50,45.68a3.69,3.69,0,0,1,1.71-1.33A1.9,1.9,0,0,1,54,46.21,3.62,3.62,0,0,1,53,48.14Zm-1.9-1.54a4.5,4.5,0,0,0-.71,1c-.08.22-.06.39.08.5a.41.41,0,0,0,.53,0,4.54,4.54,0,0,0,.87-.89,5.27,5.27,0,0,0,.71-1c.09-.23.07-.41-.07-.52a.41.41,0,0,0-.52,0A4.89,4.89,0,0,0,51.12,46.6Z" transform="translate(-1.65 -16.01)"/><path class="cls-1" d="M53.22,53.38l-.73-1.29L55,50.68c.3-.17.58-.33.84-.46a2.5,2.5,0,0,1-.47-.12l-.75-.28L55,48.7l2.23.86.65,1.14Z" transform="translate(-1.65 -16.01)"/><path class="cls-1" d="M57,57.91a3.57,3.57,0,0,1-2.15-.17,1.9,1.9,0,0,1-.4-2.9,3.64,3.64,0,0,1,2-.79,3.7,3.7,0,0,1,2.16.16,1.7,1.7,0,0,1,.88,1.36A1.65,1.65,0,0,1,59,57.11,3.64,3.64,0,0,1,57,57.91Zm-.36-2.42a4.46,4.46,0,0,0-1.23.3c-.22.11-.31.25-.29.43s.17.29.41.33a4.65,4.65,0,0,0,1.25-.08,4.5,4.5,0,0,0,1.23-.3c.23-.11.32-.25.3-.43s-.16-.29-.4-.33A4.83,4.83,0,0,0,56.6,55.49Z" transform="translate(-1.65 -16.01)"/><path class="cls-1" d="M56.06,63.15a3.66,3.66,0,0,1-2-.92,1.71,1.71,0,0,1-.33-1.58,1.66,1.66,0,0,1,1-1.27,3.58,3.58,0,0,1,2.13,0,3.66,3.66,0,0,1,2,.93,1.68,1.68,0,0,1,.34,1.58,1.66,1.66,0,0,1-1,1.27A3.55,3.55,0,0,1,56.06,63.15Zm.53-2.39a4.85,4.85,0,0,0-1.25-.16q-.36,0-.42.3c0,.18,0,.33.26.45a4.36,4.36,0,0,0,1.19.39,4.81,4.81,0,0,0,1.25.16c.26,0,.4-.12.44-.3s-.05-.32-.25-.45A5.24,5.24,0,0,0,56.59,60.76Z" transform="translate(-1.65 -16.01)"/><path class="cls-1" d="M51.44,65.69l.83-1.23,2.37,1.59c.29.19.55.38.78.55a4.45,4.45,0,0,1-.1-.48l-.08-.79,1.2-.11.22,2.38-.73,1.1Z" transform="translate(-1.65 -16.01)"/><path class="cls-1" d="M49.07,71.05a3.6,3.6,0,0,1-.81-2,1.7,1.7,0,0,1,.82-1.39,1.67,1.67,0,0,1,1.59-.27,3.57,3.57,0,0,1,1.59,1.41,3.67,3.67,0,0,1,.82,2,1.91,1.91,0,0,1-2.41,1.66A3.64,3.64,0,0,1,49.07,71.05Zm2-1.4a5,5,0,0,0-.81-1q-.3-.21-.51-.06a.42.42,0,0,0-.12.51,5.08,5.08,0,0,0,.63,1.09,4.5,4.5,0,0,0,.81,1c.2.16.38.18.52.08s.19-.27.12-.51A4.49,4.49,0,0,0,51.07,69.65Z" transform="translate(-1.65 -16.01)"/><path class="cls-1" d="M44,69.81l1.44-.36.68,2.78c.08.34.15.65.2.93a3.29,3.29,0,0,1,.25-.42L47,72.1l.95.73-1.44,1.91-1.28.31Z" transform="translate(-1.65 -16.01)"/><path class="cls-1" d="M39.64,69.59l1.47.19-.36,2.83c0,.35-.1.66-.15,1a4.56,4.56,0,0,1,.38-.31l.68-.42.63,1-2,1.26L39,75Z" transform="translate(-1.65 -16.01)"/><path class="cls-1" d="M33.79,69.86a3.71,3.71,0,0,1,1.43-1.62,1.92,1.92,0,0,1,2.56,1.43,3.61,3.61,0,0,1-.56,2,3.71,3.71,0,0,1-1.43,1.62,1.91,1.91,0,0,1-2.56-1.42A3.66,3.66,0,0,1,33.79,69.86ZM36,71a5,5,0,0,0,.5-1.17.41.41,0,0,0-.18-.48c-.16-.09-.33,0-.51.13a4.89,4.89,0,0,0-.69,1,4.66,4.66,0,0,0-.5,1.16.42.42,0,0,0,.16.5.44.44,0,0,0,.51-.12A4.88,4.88,0,0,0,36,71Z" transform="translate(-1.65 -16.01)"/><path class="cls-1" d="M32.62,64.74l1,1.13-2.17,1.85c-.27.23-.51.43-.74.6a2.9,2.9,0,0,1,.48,0l.78.14-.21,1.17-2.36-.43-.85-1Z" transform="translate(-1.65 -16.01)"/><path class="cls-1" d="M28.13,61a3.56,3.56,0,0,1,2.14-.24A1.72,1.72,0,0,1,31.38,62a1.68,1.68,0,0,1-.18,1.61,3.6,3.6,0,0,1-1.79,1.14,3.7,3.7,0,0,1-2.16.24,1.91,1.91,0,0,1-.93-2.77A3.52,3.52,0,0,1,28.13,61Zm.8,2.31a4.41,4.41,0,0,0,1.15-.52c.19-.15.26-.31.2-.48s-.21-.25-.46-.25a4.81,4.81,0,0,0-1.22.31,4.57,4.57,0,0,0-1.15.52q-.3.23-.21.48c.06.17.21.25.45.25A5,5,0,0,0,28.93,63.33Z" transform="translate(-1.65 -16.01)"/><path class="cls-1" d="M28,55.69a3.57,3.57,0,0,1,2.08.55A1.91,1.91,0,0,1,30,59.16a3.59,3.59,0,0,1-2.08.43,3.65,3.65,0,0,1-2.1-.55,1.68,1.68,0,0,1-.63-1.49,1.65,1.65,0,0,1,.75-1.43A3.58,3.58,0,0,1,28,55.69ZM28,58.14a4.46,4.46,0,0,0,1.26-.08c.23-.07.35-.19.36-.37s-.11-.31-.34-.4A5,5,0,0,0,28,57.14a4.57,4.57,0,0,0-1.26.08c-.24.07-.36.19-.37.37s.11.31.34.39A4.33,4.33,0,0,0,28,58.14Z" transform="translate(-1.65 -16.01)"/><path class="cls-1" d="M32.09,52.34l-.58,1.36-2.63-1.12L28,52.19a2.63,2.63,0,0,1,.19.44l.22.77-1.15.33-.66-2.3.51-1.21Z" transform="translate(-1.65 -16.01)"/><path class="cls-1" d="M33.41,46.64a3.65,3.65,0,0,1,1.17,1.81,1.93,1.93,0,0,1-2.06,2.08,3.68,3.68,0,0,1-1.83-1.09,3.7,3.7,0,0,1-1.18-1.82,1.9,1.9,0,0,1,2.06-2.08A3.66,3.66,0,0,1,33.41,46.64ZM31.7,48.4a4.53,4.53,0,0,0,1,.79.4.4,0,0,0,.51,0c.13-.13.13-.3,0-.52a4.38,4.38,0,0,0-.81-1,4.62,4.62,0,0,0-1-.79c-.23-.12-.4-.11-.53,0a.43.43,0,0,0,0,.52A5.18,5.18,0,0,0,31.7,48.4Z" transform="translate(-1.65 -16.01)"/><path class="cls-2" d="M102.9,35.93,98.42,21.35h-.11c.16,3,.24,4.94.24,5.94v8.64H95V17.35h5.36l4.4,14.21h.08l4.66-14.21h5.36V35.93h-3.67v-8.8c0-.41,0-.89,0-1.43s.07-2,.17-4.32h-.11l-4.8,14.55Z" transform="translate(-1.65 -16.01)"/><path class="cls-2" d="M128.29,35.93,127.54,34h-.1a5.86,5.86,0,0,1-2,1.71,6.64,6.64,0,0,1-2.7.47A4.36,4.36,0,0,1,119.5,35a4.51,4.51,0,0,1-1.18-3.33,3.73,3.73,0,0,1,1.59-3.33,9.13,9.13,0,0,1,4.77-1.19l2.46-.08v-.62a1.93,1.93,0,0,0-2.21-2.16,10,10,0,0,0-4,1l-1.28-2.62a11.57,11.57,0,0,1,5.43-1.28,6.79,6.79,0,0,1,4.39,1.24A4.6,4.6,0,0,1,131,26.46v9.47Zm-1.15-6.59-1.5.06a4.69,4.69,0,0,0-2.51.61,1.91,1.91,0,0,0-.83,1.7c0,1.09.63,1.64,1.88,1.64a3,3,0,0,0,2.16-.78,2.73,2.73,0,0,0,.8-2.06Z" transform="translate(-1.65 -16.01)"/><path class="cls-2" d="M148.1,35.93h-3.88v-8.3a4,4,0,0,0-.54-2.31,2,2,0,0,0-1.74-.77,2.65,2.65,0,0,0-2.36,1.09,6.77,6.77,0,0,0-.72,3.6v6.69H135V21.72h3l.52,1.82h.21A4.06,4.06,0,0,1,140.47,22a6.1,6.1,0,0,1,2.58-.53,5,5,0,0,1,3.77,1.34,5.43,5.43,0,0,1,1.28,3.87Z" transform="translate(-1.65 -16.01)"/><path class="cls-2" d="M162.16,35.93l-.53-1.82h-.2a4,4,0,0,1-1.77,1.53,6,6,0,0,1-2.6.54,5,5,0,0,1-3.78-1.34A5.42,5.42,0,0,1,152,31V21.72h3.88V30a3.92,3.92,0,0,0,.55,2.3,2,2,0,0,0,1.74.77A2.62,2.62,0,0,0,160.53,32a6.81,6.81,0,0,0,.72-3.61V21.72h3.88V35.93Z" transform="translate(-1.65 -16.01)"/><path class="cls-2" d="M177.05,24.63h-3.36v11.3h-3.87V24.63h-2.14V22.76l2.14-1v-1A4.69,4.69,0,0,1,171,17.13,5.51,5.51,0,0,1,174.84,16a9.9,9.9,0,0,1,3.57.6l-1,2.85a7.1,7.1,0,0,0-2.16-.37,1.41,1.41,0,0,0-1.2.49,2,2,0,0,0-.37,1.25v.89h3.36Z" transform="translate(-1.65 -16.01)"/><path class="cls-2" d="M188.3,35.93,187.55,34h-.1a5.86,5.86,0,0,1-2,1.71,6.64,6.64,0,0,1-2.7.47A4.36,4.36,0,0,1,179.51,35a4.47,4.47,0,0,1-1.18-3.33,3.73,3.73,0,0,1,1.59-3.33,9.13,9.13,0,0,1,4.77-1.19l2.46-.08v-.62a1.93,1.93,0,0,0-2.21-2.16,10,10,0,0,0-4,1l-1.28-2.62a11.57,11.57,0,0,1,5.43-1.28,6.79,6.79,0,0,1,4.39,1.24A4.6,4.6,0,0,1,191,26.46v9.47Zm-1.15-6.59-1.5.06a4.69,4.69,0,0,0-2.51.61,1.91,1.91,0,0,0-.83,1.7c0,1.09.63,1.64,1.88,1.64a3,3,0,0,0,2.16-.78,2.73,2.73,0,0,0,.8-2.06Z" transform="translate(-1.65 -16.01)"/><path class="cls-2" d="M200.76,36.18q-6.63,0-6.63-7.28a7.77,7.77,0,0,1,1.8-5.53,6.78,6.78,0,0,1,5.18-1.92,9.8,9.8,0,0,1,4.42,1l-1.14,3c-.61-.25-1.18-.45-1.71-.61a5.68,5.68,0,0,0-1.57-.23q-3,0-3,4.29t3,4.17a6.91,6.91,0,0,0,2.07-.3,7.25,7.25,0,0,0,1.9-.93v3.32a6.05,6.05,0,0,1-1.9.82A10.22,10.22,0,0,1,200.76,36.18Z" transform="translate(-1.65 -16.01)"/><path class="cls-2" d="M214.36,33.09a8.26,8.26,0,0,0,2.44-.44v2.88a8.55,8.55,0,0,1-3.56.65A4.34,4.34,0,0,1,209.86,35a5.12,5.12,0,0,1-1.06-3.53V24.63h-1.86V23l2.14-1.3,1.11-3h2.48v3h4v2.91h-4v6.85a1.51,1.51,0,0,0,.47,1.22A1.81,1.81,0,0,0,214.36,33.09Z" transform="translate(-1.65 -16.01)"/><path class="cls-2" d="M229.74,35.93l-.52-1.82H229a4.06,4.06,0,0,1-1.76,1.53,6,6,0,0,1-2.61.54,4.93,4.93,0,0,1-3.77-1.34A5.38,5.38,0,0,1,219.6,31V21.72h3.87V30a4,4,0,0,0,.55,2.3,2,2,0,0,0,1.74.77A2.61,2.61,0,0,0,228.11,32a6.7,6.7,0,0,0,.73-3.61V21.72h3.87V35.93Z" transform="translate(-1.65 -16.01)"/><path class="cls-2" d="M244.71,21.45a6,6,0,0,1,1.31.12l-.29,3.63a4.73,4.73,0,0,0-1.15-.13,4.1,4.1,0,0,0-2.89,1,3.43,3.43,0,0,0-1,2.67v7.23h-3.88V21.72h2.93l.58,2.39h.19a5.33,5.33,0,0,1,1.78-1.93A4.48,4.48,0,0,1,244.71,21.45Z" transform="translate(-1.65 -16.01)"/><path class="cls-2" d="M248.43,18.05c0-1.27.71-1.9,2.11-1.9s2.11.63,2.11,1.9a1.8,1.8,0,0,1-.53,1.4,2.17,2.17,0,0,1-1.58.5C249.14,20,248.43,19.32,248.43,18.05Zm4,17.88H248.6V21.72h3.87Z" transform="translate(-1.65 -16.01)"/><path class="cls-2" d="M269.66,35.93h-3.88v-8.3a4,4,0,0,0-.55-2.31,2,2,0,0,0-1.74-.77,2.63,2.63,0,0,0-2.35,1.09,6.77,6.77,0,0,0-.72,3.6v6.69h-3.88V21.72h3l.52,1.82h.22A4.09,4.09,0,0,1,262,22a6.15,6.15,0,0,1,2.59-.53,5,5,0,0,1,3.76,1.34,5.38,5.38,0,0,1,1.29,3.87Z" transform="translate(-1.65 -16.01)"/><path class="cls-2" d="M286,21.72v2l-2.22.57a4,4,0,0,1,.61,2.14A4.29,4.29,0,0,1,282.8,30a6.91,6.91,0,0,1-4.43,1.28l-.7,0-.57-.06a1.29,1.29,0,0,0-.59,1q0,.84,2.13.84h2.42a5.51,5.51,0,0,1,3.56,1,3.58,3.58,0,0,1,1.23,2.94,4.4,4.4,0,0,1-2.08,3.87,10.9,10.9,0,0,1-6,1.37,8.26,8.26,0,0,1-4.54-1,3.27,3.27,0,0,1-1.57-2.9,3.06,3.06,0,0,1,.8-2.15,4.62,4.62,0,0,1,2.35-1.23,2.65,2.65,0,0,1-1-.83,2,2,0,0,1,0-2.58,5.45,5.45,0,0,1,1.36-1.06,3.91,3.91,0,0,1-1.77-1.55,4.71,4.71,0,0,1-.65-2.52,4.44,4.44,0,0,1,1.51-3.6,6.58,6.58,0,0,1,4.32-1.27,11.55,11.55,0,0,1,1.42.11c.54.07.89.13,1.05.16ZM275,37.94a1.4,1.4,0,0,0,.77,1.25,4.2,4.2,0,0,0,2.16.46,7.6,7.6,0,0,0,3.26-.57,1.74,1.74,0,0,0,1.19-1.56,1.11,1.11,0,0,0-.7-1.11,5.84,5.84,0,0,0-2.16-.3h-2a3,3,0,0,0-1.79.5A1.53,1.53,0,0,0,275,37.94Zm1.42-11.57A2.91,2.91,0,0,0,277,28.2a1.91,1.91,0,0,0,1.61.67,1.87,1.87,0,0,0,1.6-.67,3,3,0,0,0,.51-1.83c0-1.71-.7-2.57-2.11-2.57S276.46,24.66,276.46,26.37Z" transform="translate(-1.65 -16.01)"/><path class="cls-2" d="M98.9,67.16H95V48.58h10.65v3.23H98.9V56.6h6.31v3.21H98.9Z" transform="translate(-1.65 -16.01)"/><path class="cls-2" d="M119.07,67.16l-.52-1.82h-.2a4.14,4.14,0,0,1-1.77,1.53,6,6,0,0,1-2.6.54,5,5,0,0,1-3.78-1.34,5.41,5.41,0,0,1-1.27-3.85V53h3.88v8.3a4,4,0,0,0,.54,2.31,2,2,0,0,0,1.75.77,2.64,2.64,0,0,0,2.35-1.09,6.77,6.77,0,0,0,.72-3.6V53h3.88V67.16Z" transform="translate(-1.65 -16.01)"/><path class="cls-2" d="M132.1,64.33a8.31,8.31,0,0,0,2.44-.45v2.89a8.75,8.75,0,0,1-3.56.64,4.38,4.38,0,0,1-3.39-1.17,5.15,5.15,0,0,1-1.06-3.53V55.86h-1.85V54.22l2.13-1.29,1.12-3h2.48v3h4v2.91h-4v6.85a1.51,1.51,0,0,0,.46,1.22A1.86,1.86,0,0,0,132.1,64.33Z" transform="translate(-1.65 -16.01)"/><path class="cls-2" d="M147.48,67.16,147,65.34h-.21A4.06,4.06,0,0,1,145,66.87a6.09,6.09,0,0,1-2.61.54,4.92,4.92,0,0,1-3.77-1.34,5.37,5.37,0,0,1-1.28-3.85V53h3.88v8.3a4,4,0,0,0,.55,2.31,2,2,0,0,0,1.74.77,2.63,2.63,0,0,0,2.35-1.09,6.77,6.77,0,0,0,.72-3.6V53h3.88V67.16Z" transform="translate(-1.65 -16.01)"/><path class="cls-2" d="M162.45,52.69a6.1,6.1,0,0,1,1.31.11l-.3,3.63a4.63,4.63,0,0,0-1.14-.12,4.08,4.08,0,0,0-2.89.95,3.46,3.46,0,0,0-1,2.67v7.23h-3.87V53h2.93l.57,2.39h.19A5.33,5.33,0,0,1,160,53.42,4.39,4.39,0,0,1,162.45,52.69Z" transform="translate(-1.65 -16.01)"/><path class="cls-2" d="M172.77,67.41a7.36,7.36,0,0,1-5.37-1.89,7.19,7.19,0,0,1-1.93-5.36,7.88,7.88,0,0,1,1.79-5.52,6.34,6.34,0,0,1,4.93-2,6.26,6.26,0,0,1,4.69,1.71,6.47,6.47,0,0,1,1.68,4.74V61H169.4a3.73,3.73,0,0,0,1,2.58,3.42,3.42,0,0,0,2.56.93,10.52,10.52,0,0,0,2.43-.27,12.31,12.31,0,0,0,2.39-.85v3a9.3,9.3,0,0,1-2.17.76A14.11,14.11,0,0,1,172.77,67.41Zm-.55-12a2.45,2.45,0,0,0-1.93.78,3.63,3.63,0,0,0-.8,2.22h5.44a3.28,3.28,0,0,0-.75-2.22A2.56,2.56,0,0,0,172.22,55.44Z" transform="translate(-1.65 -16.01)"/><path class="cls-2" d="M191.63,62.94a3.91,3.91,0,0,1-1.52,3.33,7.55,7.55,0,0,1-4.55,1.14,14.25,14.25,0,0,1-2.64-.21,10.17,10.17,0,0,1-2-.61v-3.2a14.49,14.49,0,0,0,2.44.85,9.71,9.71,0,0,0,2.38.34c1.41,0,2.11-.41,2.11-1.22a1,1,0,0,0-.28-.74,4.09,4.09,0,0,0-1-.65c-.45-.24-1.06-.52-1.83-.85a11.05,11.05,0,0,1-2.4-1.27,3.45,3.45,0,0,1-1.12-1.34,4.29,4.29,0,0,1-.35-1.86,3.38,3.38,0,0,1,1.47-2.93,7.12,7.12,0,0,1,4.16-1,11.88,11.88,0,0,1,5,1.11l-1.17,2.8a18.69,18.69,0,0,0-2-.75,6.11,6.11,0,0,0-1.89-.29c-1.15,0-1.72.31-1.72.92a1.1,1.1,0,0,0,.55.91,15.77,15.77,0,0,0,2.42,1.13,11.1,11.1,0,0,1,2.44,1.26,3.8,3.8,0,0,1,1.15,1.34A4.25,4.25,0,0,1,191.63,62.94Z" transform="translate(-1.65 -16.01)"/><circle class="cls-2" cx="40.76" cy="42.08" r="6.79"/><path class="cls-1" d="M5.84,120.47H4v-7.12H1.66v-1.52H8.19v1.52H5.84Z" transform="translate(-1.65 -16.01)"/><path class="cls-1" d="M15.79,120.47H14v-3.86c0-1-.36-1.43-1.07-1.43a1.21,1.21,0,0,0-1.09.51,3.11,3.11,0,0,0-.34,1.67v3.11H9.69v-9.2h1.8v1.87c0,.15,0,.49,0,1l0,.54h.09a2.08,2.08,0,0,1,1.92-1,2.38,2.38,0,0,1,1.77.62,2.51,2.51,0,0,1,.6,1.8Z" transform="translate(-1.65 -16.01)"/><path class="cls-1" d="M20.94,120.59a3.4,3.4,0,0,1-2.49-.88,3.34,3.34,0,0,1-.9-2.5,3.71,3.71,0,0,1,.83-2.57,3,3,0,0,1,2.3-.9,2.88,2.88,0,0,1,2.18.8,3,3,0,0,1,.78,2.2v.88H19.38a1.76,1.76,0,0,0,.45,1.2,1.6,1.6,0,0,0,1.2.43,5.15,5.15,0,0,0,1.13-.12,6.53,6.53,0,0,0,1.11-.4v1.4a4.82,4.82,0,0,1-1,.35A7,7,0,0,1,20.94,120.59ZM20.69,115a1.16,1.16,0,0,0-.9.36,1.69,1.69,0,0,0-.37,1H22a1.52,1.52,0,0,0-.35-1A1.18,1.18,0,0,0,20.69,115Z" transform="translate(-1.65 -16.01)"/><path class="cls-1" d="M36.18,116.07A4.27,4.27,0,0,1,35,119.34a4.94,4.94,0,0,1-3.51,1.13H29v-8.64h2.72A4.6,4.6,0,0,1,35,112.94,4.13,4.13,0,0,1,36.18,116.07Zm-1.91,0c0-1.85-.82-2.78-2.46-2.78h-1V119h.78C33.39,119,34.27,118,34.27,116.11Z" transform="translate(-1.65 -16.01)"/><path class="cls-1" d="M38.06,112.15c0-.59.32-.88,1-.88s1,.29,1,.88a.85.85,0,0,1-.24.65A1,1,0,0,1,39,113C38.38,113,38.06,112.74,38.06,112.15Zm1.88,8.32H38.13v-6.61h1.81Z" transform="translate(-1.65 -16.01)"/><path class="cls-1" d="M47.89,113.86v.92l-1,.26a1.83,1.83,0,0,1,.29,1,2,2,0,0,1-.74,1.66,3.29,3.29,0,0,1-2.07.59l-.32,0-.27,0a.63.63,0,0,0-.28.48c0,.26.34.39,1,.39h1.12a2.51,2.51,0,0,1,1.66.47,1.66,1.66,0,0,1,.57,1.37,2.05,2.05,0,0,1-1,1.8,5.13,5.13,0,0,1-2.78.63A3.89,3.89,0,0,1,42,122.9a1.54,1.54,0,0,1-.73-1.35,1.41,1.41,0,0,1,.38-1,2,2,0,0,1,1.09-.57,1.21,1.21,0,0,1-.49-.39A1,1,0,0,1,42,119a.91.91,0,0,1,.22-.63,2.26,2.26,0,0,1,.63-.49,1.83,1.83,0,0,1-.83-.73,2.21,2.21,0,0,1-.3-1.17,2,2,0,0,1,.7-1.67,3,3,0,0,1,2-.59,4.12,4.12,0,0,1,.66.05l.49.07Zm-5.11,7.55a.67.67,0,0,0,.36.59,2,2,0,0,0,1,.21,3.54,3.54,0,0,0,1.52-.27.82.82,0,0,0,.55-.73.51.51,0,0,0-.33-.51,2.58,2.58,0,0,0-1-.14H44a1.45,1.45,0,0,0-.83.23A.74.74,0,0,0,42.78,121.41Zm.66-5.38a1.32,1.32,0,0,0,.25.85,1.05,1.05,0,0,0,1.49,0,1.38,1.38,0,0,0,.24-.85q0-1.2-1-1.2T43.44,116Z" transform="translate(-1.65 -16.01)"/><path class="cls-1" d="M49.2,112.15c0-.59.33-.88,1-.88s1,.29,1,.88a.82.82,0,0,1-.25.65,1,1,0,0,1-.73.24C49.53,113,49.2,112.74,49.2,112.15Zm1.89,8.32H49.28v-6.61h1.81Z" transform="translate(-1.65 -16.01)"/><path class="cls-1" d="M56.07,119.16A3.85,3.85,0,0,0,57.2,119v1.34a4.05,4.05,0,0,1-1.65.3,2.06,2.06,0,0,1-1.58-.54,2.41,2.41,0,0,1-.49-1.65v-3.18h-.87v-.77l1-.6.52-1.4h1.15v1.41h1.85v1.36H55.28v3.18a.68.68,0,0,0,.22.57A.85.85,0,0,0,56.07,119.16Z" transform="translate(-1.65 -16.01)"/><path class="cls-1" d="M63,120.47l-.35-.89h0a2.77,2.77,0,0,1-.94.79,3,3,0,0,1-1.26.22,2.06,2.06,0,0,1-1.5-.54,2.1,2.1,0,0,1-.54-1.55,1.74,1.74,0,0,1,.73-1.55,4.23,4.23,0,0,1,2.22-.56l1.15,0v-.29a.9.9,0,0,0-1-1,4.65,4.65,0,0,0-1.86.48l-.6-1.22a5.37,5.37,0,0,1,2.53-.6,3.18,3.18,0,0,1,2,.58,2.14,2.14,0,0,1,.71,1.77v4.4Zm-.53-3.06-.7,0a2.23,2.23,0,0,0-1.17.29.9.9,0,0,0-.38.79c0,.51.29.76.87.76a1.4,1.4,0,0,0,1-.36,1.27,1.27,0,0,0,.37-1Z" transform="translate(-1.65 -16.01)"/><path class="cls-1" d="M68.27,120.47H66.46v-9.2h1.81Z" transform="translate(-1.65 -16.01)"/><path class="cls-1" d="M77.39,120.47H75.56v-7.12H73.21v-1.52h6.53v1.52H77.39Z" transform="translate(-1.65 -16.01)"/><path class="cls-1" d="M84.92,113.74a2.62,2.62,0,0,1,.61.05l-.13,1.69a2.09,2.09,0,0,0-.53-.06,1.9,1.9,0,0,0-1.35.45,1.6,1.6,0,0,0-.48,1.24v3.36H81.23v-6.61H82.6l.27,1.11H83a2.48,2.48,0,0,1,.84-.89A2,2,0,0,1,84.92,113.74Z" transform="translate(-1.65 -16.01)"/><path class="cls-1" d="M91.24,120.47l-.35-.89h0a2.59,2.59,0,0,1-.94.79,3,3,0,0,1-1.25.22,2,2,0,0,1-1.5-.54,2.07,2.07,0,0,1-.55-1.55,1.74,1.74,0,0,1,.74-1.55,4.23,4.23,0,0,1,2.22-.56l1.15,0v-.29a.91.91,0,0,0-1-1,4.73,4.73,0,0,0-1.87.48l-.6-1.22a5.41,5.41,0,0,1,2.54-.6,3.22,3.22,0,0,1,2,.58,2.17,2.17,0,0,1,.71,1.77v4.4Zm-.53-3.06-.7,0a2.17,2.17,0,0,0-1.17.29.88.88,0,0,0-.39.79c0,.51.29.76.88.76a1.39,1.39,0,0,0,1-.36,1.27,1.27,0,0,0,.38-1Z" transform="translate(-1.65 -16.01)"/><path class="cls-1" d="M100.76,120.47H99v-3.86a1.92,1.92,0,0,0-.25-1.07.93.93,0,0,0-.82-.36,1.21,1.21,0,0,0-1.09.51,3.13,3.13,0,0,0-.34,1.67v3.11h-1.8v-6.61H96l.24.85h.1a2,2,0,0,1,.83-.73,2.9,2.9,0,0,1,1.21-.24,2.31,2.31,0,0,1,1.75.62,2.55,2.55,0,0,1,.59,1.8Z" transform="translate(-1.65 -16.01)"/><path class="cls-1" d="M107.54,118.51a1.82,1.82,0,0,1-.71,1.55,3.44,3.44,0,0,1-2.11.53,7.2,7.2,0,0,1-1.23-.09,5.65,5.65,0,0,1-1-.29v-1.49a5.86,5.86,0,0,0,1.14.39,4.42,4.42,0,0,0,1.11.16c.65,0,1-.19,1-.56a.5.5,0,0,0-.13-.35,1.92,1.92,0,0,0-.45-.3c-.22-.11-.5-.25-.85-.39a5.43,5.43,0,0,1-1.12-.6,1.71,1.71,0,0,1-.53-.62,2.22,2.22,0,0,1-.16-.87,1.57,1.57,0,0,1,.69-1.36,3.32,3.32,0,0,1,1.93-.48,5.49,5.49,0,0,1,2.33.52l-.55,1.3c-.33-.14-.64-.26-.93-.35a2.89,2.89,0,0,0-.88-.14c-.53,0-.8.15-.8.43a.52.52,0,0,0,.26.43,7.74,7.74,0,0,0,1.13.52,5.15,5.15,0,0,1,1.13.59,1.79,1.79,0,0,1,.54.63A1.93,1.93,0,0,1,107.54,118.51Z" transform="translate(-1.65 -16.01)"/><path class="cls-1" d="M112.91,115.22h-1.57v5.25h-1.8v-5.25h-1v-.87l1-.49v-.48a2.11,2.11,0,0,1,.56-1.65,2.52,2.52,0,0,1,1.78-.53,4.77,4.77,0,0,1,1.66.28l-.46,1.33a3.24,3.24,0,0,0-1-.17.63.63,0,0,0-.55.22.94.94,0,0,0-.18.59v.41h1.57Z" transform="translate(-1.65 -16.01)"/><path class="cls-1" d="M120.25,117.16a3.54,3.54,0,0,1-.85,2.52,3.08,3.08,0,0,1-2.37.91,3.43,3.43,0,0,1-1.68-.41,2.83,2.83,0,0,1-1.12-1.2,4,4,0,0,1-.39-1.82,3.51,3.51,0,0,1,.85-2.52,3.09,3.09,0,0,1,2.38-.9,3.43,3.43,0,0,1,1.68.41,2.78,2.78,0,0,1,1.11,1.19A4,4,0,0,1,120.25,117.16Zm-4.57,0a2.8,2.8,0,0,0,.32,1.48,1.15,1.15,0,0,0,1,.5,1.11,1.11,0,0,0,1-.5,3.58,3.58,0,0,0,0-3,1.17,1.17,0,0,0-1-.49,1.14,1.14,0,0,0-1,.49A2.76,2.76,0,0,0,115.68,117.16Z" transform="translate(-1.65 -16.01)"/><path class="cls-1" d="M125.74,113.74a2.68,2.68,0,0,1,.61.05l-.14,1.69a2,2,0,0,0-.53-.06,1.91,1.91,0,0,0-1.35.45,1.6,1.6,0,0,0-.48,1.24v3.36h-1.8v-6.61h1.36l.27,1.11h.09a2.37,2.37,0,0,1,.83-.89A2,2,0,0,1,125.74,113.74Z" transform="translate(-1.65 -16.01)"/><path class="cls-1" d="M133.77,120.47H132v-3.86a1.93,1.93,0,0,0-.24-1.07.84.84,0,0,0-.75-.36,1.09,1.09,0,0,0-1,.51,3.33,3.33,0,0,0-.31,1.67v3.11h-1.81v-6.61h1.38l.24.85h.1a1.91,1.91,0,0,1,.77-.72,2.54,2.54,0,0,1,1.16-.25,2.07,2.07,0,0,1,2,1h.16a1.82,1.82,0,0,1,.78-.72,2.64,2.64,0,0,1,1.17-.25,2.31,2.31,0,0,1,1.7.57,2.52,2.52,0,0,1,.58,1.85v4.31h-1.81v-3.86a1.93,1.93,0,0,0-.24-1.07.84.84,0,0,0-.76-.36,1.14,1.14,0,0,0-1,.47,2.7,2.7,0,0,0-.33,1.51Z" transform="translate(-1.65 -16.01)"/><path class="cls-1" d="M144.25,120.47l-.35-.89h0a2.77,2.77,0,0,1-.94.79,3,3,0,0,1-1.26.22,2.06,2.06,0,0,1-1.5-.54,2.11,2.11,0,0,1-.55-1.55,1.74,1.74,0,0,1,.74-1.55,4.23,4.23,0,0,1,2.22-.56l1.15,0v-.29a.9.9,0,0,0-1-1,4.65,4.65,0,0,0-1.86.48l-.6-1.22a5.34,5.34,0,0,1,2.53-.6,3.18,3.18,0,0,1,2,.58,2.14,2.14,0,0,1,.71,1.77v4.4Zm-.53-3.06-.7,0a2.23,2.23,0,0,0-1.17.29.88.88,0,0,0-.38.79c0,.51.29.76.87.76a1.38,1.38,0,0,0,1-.36,1.27,1.27,0,0,0,.38-1Z" transform="translate(-1.65 -16.01)"/><path class="cls-1" d="M150.46,119.16a3.91,3.91,0,0,0,1.14-.21v1.34a4.1,4.1,0,0,1-1.66.3,2.06,2.06,0,0,1-1.58-.54,2.41,2.41,0,0,1-.49-1.65v-3.18H147v-.77l1-.6.52-1.4h1.15v1.41h1.85v1.36h-1.85v3.18a.68.68,0,0,0,.22.57A.85.85,0,0,0,150.46,119.16Z" transform="translate(-1.65 -16.01)"/><path class="cls-1" d="M153.16,112.15c0-.59.33-.88,1-.88s1,.29,1,.88a.85.85,0,0,1-.24.65,1,1,0,0,1-.74.24C153.49,113,153.16,112.74,153.16,112.15Zm1.88,8.32h-1.81v-6.61H155Z" transform="translate(-1.65 -16.01)"/><path class="cls-1" d="M163.25,117.16a3.55,3.55,0,0,1-.86,2.52,3.07,3.07,0,0,1-2.37.91,3.43,3.43,0,0,1-1.68-.41,2.83,2.83,0,0,1-1.12-1.2,4,4,0,0,1-.39-1.82,3.51,3.51,0,0,1,.85-2.52,3.11,3.11,0,0,1,2.38-.9,3.43,3.43,0,0,1,1.68.41,2.78,2.78,0,0,1,1.11,1.19A3.88,3.88,0,0,1,163.25,117.16Zm-4.58,0a2.8,2.8,0,0,0,.32,1.48,1.15,1.15,0,0,0,1,.5,1.11,1.11,0,0,0,1-.5,3.58,3.58,0,0,0,0-3,1.17,1.17,0,0,0-1.05-.49,1.14,1.14,0,0,0-1,.49A2.76,2.76,0,0,0,158.67,117.16Z" transform="translate(-1.65 -16.01)"/><path class="cls-1" d="M171.14,120.47h-1.8v-3.86a1.83,1.83,0,0,0-.26-1.07.91.91,0,0,0-.81-.36,1.21,1.21,0,0,0-1.09.51,3.13,3.13,0,0,0-.34,1.67v3.11H165v-6.61h1.38l.24.85h.1a2,2,0,0,1,.83-.73,2.89,2.89,0,0,1,1.2-.24,2.32,2.32,0,0,1,1.76.62,2.55,2.55,0,0,1,.59,1.8Z" transform="translate(-1.65 -16.01)"/><path class="cls-1" d="M182.76,117.16a3.54,3.54,0,0,1-.85,2.52,3.08,3.08,0,0,1-2.37.91,3.43,3.43,0,0,1-1.68-.41,2.83,2.83,0,0,1-1.12-1.2,4,4,0,0,1-.39-1.82,3.51,3.51,0,0,1,.85-2.52,3.09,3.09,0,0,1,2.38-.9,3.43,3.43,0,0,1,1.68.41,2.78,2.78,0,0,1,1.11,1.19A4,4,0,0,1,182.76,117.16Zm-4.57,0a2.8,2.8,0,0,0,.32,1.48,1.15,1.15,0,0,0,1.05.5,1.12,1.12,0,0,0,1-.5,3.58,3.58,0,0,0,0-3,1.17,1.17,0,0,0-1-.49,1.14,1.14,0,0,0-1,.49A2.76,2.76,0,0,0,178.19,117.16Z" transform="translate(-1.65 -16.01)"/><path class="cls-1" d="M188.21,115.22h-1.56v5.25h-1.8v-5.25h-1v-.87l1-.49v-.48a2.15,2.15,0,0,1,.55-1.65,2.54,2.54,0,0,1,1.78-.53,4.79,4.79,0,0,1,1.67.28l-.46,1.33a3.24,3.24,0,0,0-1-.17.66.66,0,0,0-.56.22,1,1,0,0,0-.17.59v.41h1.56Z" transform="translate(-1.65 -16.01)"/><path class="cls-1" d="M196.81,120.47l-2.09-6.78h-.05c.08,1.38.11,2.3.11,2.76v4h-1.63v-8.64h2.49l2.05,6.61h0l2.18-6.61h2.49v8.64h-1.71v-4.09c0-.19,0-.42,0-.67s0-.92.08-2h-.05l-2.23,6.77Z" transform="translate(-1.65 -16.01)"/><path class="cls-1" d="M208.93,120.47l-.35-.89h-.05a2.65,2.65,0,0,1-.93.79,3,3,0,0,1-1.26.22,2,2,0,0,1-1.5-.54,2.07,2.07,0,0,1-.55-1.55A1.74,1.74,0,0,1,205,117a4.23,4.23,0,0,1,2.22-.56l1.15,0v-.29a.91.91,0,0,0-1-1,4.73,4.73,0,0,0-1.87.48l-.59-1.22a5.34,5.34,0,0,1,2.53-.6,3.18,3.18,0,0,1,2,.58,2.17,2.17,0,0,1,.71,1.77v4.4Zm-.53-3.06-.7,0a2.17,2.17,0,0,0-1.17.29.88.88,0,0,0-.39.79c0,.51.3.76.88.76a1.38,1.38,0,0,0,1-.36,1.27,1.27,0,0,0,.38-1Z" transform="translate(-1.65 -16.01)"/><path class="cls-1" d="M218.46,120.47h-1.81v-3.86a1.84,1.84,0,0,0-.25-1.07.92.92,0,0,0-.81-.36,1.22,1.22,0,0,0-1.1.51,3.13,3.13,0,0,0-.34,1.67v3.11h-1.8v-6.61h1.38l.24.85h.1a2,2,0,0,1,.83-.73,2.94,2.94,0,0,1,1.21-.24,2.29,2.29,0,0,1,1.75.62,2.51,2.51,0,0,1,.6,1.8Z" transform="translate(-1.65 -16.01)"/><path class="cls-1" d="M225.3,120.47l-.24-.84H225a1.85,1.85,0,0,1-.82.71,2.76,2.76,0,0,1-1.21.25,2.34,2.34,0,0,1-1.76-.62,2.55,2.55,0,0,1-.59-1.8v-4.31h1.8v3.86a1.87,1.87,0,0,0,.26,1.08.92.92,0,0,0,.81.36,1.21,1.21,0,0,0,1.09-.51,3.1,3.1,0,0,0,.34-1.68v-3.11h1.81v6.61Z" transform="translate(-1.65 -16.01)"/><path class="cls-1" d="M232.54,115.22H231v5.25h-1.81v-5.25h-1v-.87l1-.49v-.48a2.15,2.15,0,0,1,.56-1.65,2.52,2.52,0,0,1,1.78-.53,4.77,4.77,0,0,1,1.66.28l-.46,1.33a3.19,3.19,0,0,0-1-.17.64.64,0,0,0-.55.22.94.94,0,0,0-.17.59v.41h1.56Z" transform="translate(-1.65 -16.01)"/><path class="cls-1" d="M238.08,120.47l-.35-.89h0a2.68,2.68,0,0,1-.94.79,3,3,0,0,1-1.25.22,2,2,0,0,1-1.5-.54,2.07,2.07,0,0,1-.55-1.55,1.74,1.74,0,0,1,.73-1.55,4.3,4.3,0,0,1,2.23-.56l1.14,0v-.29a.9.9,0,0,0-1-1,4.73,4.73,0,0,0-1.86.48l-.6-1.22a5.38,5.38,0,0,1,2.54-.6,3.22,3.22,0,0,1,2,.58,2.17,2.17,0,0,1,.71,1.77v4.4Zm-.54-3.06-.69,0a2.24,2.24,0,0,0-1.18.29.9.9,0,0,0-.38.79c0,.51.29.76.88.76a1.39,1.39,0,0,0,1-.36,1.27,1.27,0,0,0,.37-1Z" transform="translate(-1.65 -16.01)"/><path class="cls-1" d="M244.18,120.59q-3.09,0-3.09-3.39a3.6,3.6,0,0,1,.84-2.57,3.14,3.14,0,0,1,2.41-.89,4.59,4.59,0,0,1,2.06.45l-.53,1.39c-.29-.11-.55-.21-.79-.28a2.71,2.71,0,0,0-.74-.11c-.94,0-1.41.67-1.41,2s.47,1.94,1.41,1.94a3.34,3.34,0,0,0,1-.14,3.57,3.57,0,0,0,.88-.43v1.54a2.73,2.73,0,0,1-.88.39A5.08,5.08,0,0,1,244.18,120.59Z" transform="translate(-1.65 -16.01)"/><path class="cls-1" d="M250.81,119.16A3.85,3.85,0,0,0,252,119v1.34a4.07,4.07,0,0,1-1.66.3,2,2,0,0,1-1.57-.54,2.41,2.41,0,0,1-.5-1.65v-3.18h-.86v-.77l1-.6.53-1.4H250v1.41h1.85v1.36H250v3.18a.71.71,0,0,0,.21.57A.89.89,0,0,0,250.81,119.16Z" transform="translate(-1.65 -16.01)"/><path class="cls-1" d="M258.28,120.47l-.25-.84h-.09a1.9,1.9,0,0,1-.82.71,2.8,2.8,0,0,1-1.22.25,2.32,2.32,0,0,1-1.75-.62,2.51,2.51,0,0,1-.6-1.8v-4.31h1.81v3.86a1.87,1.87,0,0,0,.25,1.08.92.92,0,0,0,.81.36,1.22,1.22,0,0,0,1.1-.51,3.2,3.2,0,0,0,.34-1.68v-3.11h1.8v6.61Z" transform="translate(-1.65 -16.01)"/><path class="cls-1" d="M265.55,113.74a2.68,2.68,0,0,1,.61.05l-.14,1.69a2,2,0,0,0-.53-.06,1.9,1.9,0,0,0-1.35.45,1.6,1.6,0,0,0-.48,1.24v3.36h-1.8v-6.61h1.36l.27,1.11h.09a2.37,2.37,0,0,1,.83-.89A2,2,0,0,1,265.55,113.74Z" transform="translate(-1.65 -16.01)"/><path class="cls-1" d="M267.58,112.15c0-.59.33-.88,1-.88s1,.29,1,.88a.82.82,0,0,1-.25.65,1,1,0,0,1-.73.24C267.91,113,267.58,112.74,267.58,112.15Zm1.88,8.32h-1.8v-6.61h1.8Z" transform="translate(-1.65 -16.01)"/><path class="cls-1" d="M277.77,120.47H276v-3.86a1.84,1.84,0,0,0-.25-1.07.92.92,0,0,0-.81-.36,1.22,1.22,0,0,0-1.1.51,3.15,3.15,0,0,0-.33,1.67v3.11h-1.81v-6.61H273l.24.85h.1a2,2,0,0,1,.83-.73,2.94,2.94,0,0,1,1.21-.24,2.29,2.29,0,0,1,1.75.62,2.51,2.51,0,0,1,.6,1.8Z" transform="translate(-1.65 -16.01)"/><path class="cls-1" d="M285.68,113.86v.92l-1,.26a1.82,1.82,0,0,1,.28,1,2,2,0,0,1-.74,1.66,3.26,3.26,0,0,1-2.06.59l-.33,0-.26,0a.6.6,0,0,0-.28.48q0,.39,1,.39h1.13a2.55,2.55,0,0,1,1.66.47,1.66,1.66,0,0,1,.57,1.37,2.06,2.06,0,0,1-1,1.8,5.11,5.11,0,0,1-2.78.63,3.83,3.83,0,0,1-2.11-.48,1.52,1.52,0,0,1-.73-1.35,1.41,1.41,0,0,1,.37-1,2.07,2.07,0,0,1,1.09-.57,1.26,1.26,0,0,1-.48-.39.94.94,0,0,1,0-1.2,2.6,2.6,0,0,1,.63-.49,1.81,1.81,0,0,1-.82-.73,2.13,2.13,0,0,1-.31-1.17,2.06,2.06,0,0,1,.71-1.67,3,3,0,0,1,2-.59,4.28,4.28,0,0,1,.66.05l.49.07Zm-5.1,7.55a.67.67,0,0,0,.36.59,2,2,0,0,0,1,.21,3.54,3.54,0,0,0,1.52-.27.81.81,0,0,0,.55-.73.51.51,0,0,0-.33-.51,2.52,2.52,0,0,0-1-.14h-.94a1.45,1.45,0,0,0-.83.23A.73.73,0,0,0,280.58,121.41Zm.65-5.38a1.38,1.38,0,0,0,.25.85.88.88,0,0,0,.75.31.85.85,0,0,0,.74-.31,1.38,1.38,0,0,0,.24-.85c0-.8-.33-1.2-1-1.2S281.23,115.23,281.23,116Z" transform="translate(-1.65 -16.01)"/><path class="cls-2" d="M95.07,98.28V79.77H99V98.28Z" transform="translate(-1.65 -16.01)"/><path class="cls-2" d="M116.42,98.28h-3.86V90a3.89,3.89,0,0,0-.55-2.29,2,2,0,0,0-1.73-.77A2.61,2.61,0,0,0,107.94,88a6.73,6.73,0,0,0-.72,3.59v6.66h-3.87V84.13h3l.52,1.81H107a4,4,0,0,1,1.78-1.55,6,6,0,0,1,2.57-.53,5,5,0,0,1,3.75,1.34,5.31,5.31,0,0,1,1.28,3.85Z" transform="translate(-1.65 -16.01)"/><path class="cls-2" d="M130.28,94.08a3.91,3.91,0,0,1-1.52,3.32,7.47,7.47,0,0,1-4.52,1.14,14.25,14.25,0,0,1-2.64-.21,10.29,10.29,0,0,1-2-.62V94.52a13.54,13.54,0,0,0,2.43.85,9.71,9.71,0,0,0,2.37.34c1.4,0,2.1-.4,2.1-1.21a1,1,0,0,0-.27-.74,4.09,4.09,0,0,0-1-.65c-.45-.24-1.06-.52-1.82-.84A11.51,11.51,0,0,1,121,91a3.55,3.55,0,0,1-1.11-1.33,4.32,4.32,0,0,1-.35-1.86A3.35,3.35,0,0,1,121,84.89a7.13,7.13,0,0,1,4.15-1,11.79,11.79,0,0,1,5,1.11L129,87.76c-.71-.3-1.37-.55-2-.75a6.37,6.37,0,0,0-1.89-.29q-1.71,0-1.71.93a1.11,1.11,0,0,0,.56.9,15.3,15.3,0,0,0,2.41,1.12,11.47,11.47,0,0,1,2.43,1.26,3.7,3.7,0,0,1,1.14,1.34A4.2,4.2,0,0,1,130.28,94.08Z" transform="translate(-1.65 -16.01)"/><path class="cls-2" d="M139.26,95.46a8.59,8.59,0,0,0,2.43-.44v2.87a8.73,8.73,0,0,1-3.55.65,4.33,4.33,0,0,1-3.37-1.17,5.09,5.09,0,0,1-1.06-3.52V87h-1.85V85.39L134,84.1l1.11-3h2.47v3h4V87h-4v6.82a1.51,1.51,0,0,0,.46,1.22A1.85,1.85,0,0,0,139.26,95.46Z" transform="translate(-1.65 -16.01)"/><path class="cls-2" d="M144.38,80.47c0-1.26.7-1.89,2.11-1.89s2.1.63,2.1,1.89a1.85,1.85,0,0,1-.53,1.4,2.21,2.21,0,0,1-1.57.5C145.08,82.37,144.38,81.73,144.38,80.47Zm4,17.81h-3.86V84.13h3.86Z" transform="translate(-1.65 -16.01)"/><path class="cls-2" d="M158.43,95.46a8.59,8.59,0,0,0,2.43-.44v2.87a8.66,8.66,0,0,1-3.55.65,4.33,4.33,0,0,1-3.37-1.17,5.09,5.09,0,0,1-1.06-3.52V87H151V85.39l2.13-1.29,1.11-3h2.47v3h4V87h-4v6.82a1.51,1.51,0,0,0,.47,1.22A1.81,1.81,0,0,0,158.43,95.46Z" transform="translate(-1.65 -16.01)"/><path class="cls-2" d="M173.75,98.28l-.52-1.81H173A4.06,4.06,0,0,1,171.27,98a6,6,0,0,1-2.6.54,5,5,0,0,1-3.76-1.34,5.39,5.39,0,0,1-1.26-3.84V84.13h3.86V92.4a4,4,0,0,0,.54,2.29,2,2,0,0,0,1.74.77,2.61,2.61,0,0,0,2.34-1.08,6.73,6.73,0,0,0,.72-3.59V84.13h3.87V98.28Z" transform="translate(-1.65 -16.01)"/><path class="cls-2" d="M186.73,95.46a8.48,8.48,0,0,0,2.43-.44v2.87a8.64,8.64,0,0,1-3.54.65,4.36,4.36,0,0,1-3.38-1.17,5.14,5.14,0,0,1-1.05-3.52V87h-1.85V85.39l2.12-1.29,1.12-3h2.47v3h4V87h-4v6.82a1.51,1.51,0,0,0,.46,1.22A1.84,1.84,0,0,0,186.73,95.46Z" transform="translate(-1.65 -16.01)"/><path class="cls-2" d="M198.43,98.54a7.3,7.3,0,0,1-5.34-1.89,7.16,7.16,0,0,1-1.92-5.34,7.9,7.9,0,0,1,1.77-5.51,6.36,6.36,0,0,1,4.92-1.94,6.25,6.25,0,0,1,4.68,1.71,6.48,6.48,0,0,1,1.67,4.72v1.88h-9.13a3.74,3.74,0,0,0,1,2.57,3.46,3.46,0,0,0,2.56.92A11.08,11.08,0,0,0,201,95.4a12.23,12.23,0,0,0,2.38-.85v3a9.2,9.2,0,0,1-2.16.75A13.34,13.34,0,0,1,198.43,98.54Zm-.54-11.93a2.43,2.43,0,0,0-1.92.78,3.52,3.52,0,0,0-.8,2.21h5.42a3.23,3.23,0,0,0-.75-2.21A2.52,2.52,0,0,0,197.89,86.61Z" transform="translate(-1.65 -16.01)"/></svg>